<svg xmlns="http://www.w3.org/2000/svg" viewBox="0 0 100 100">
  <defs>
    <linearGradient id="gold" x1="0%" y1="0%" x2="100%" y2="100%">
      <stop offset="0%" stop-color="#F9F295"/>
      <stop offset="50%" stop-color="#E0AA3E"/>
      <stop offset="100%" stop-color="#B88A44"/>
    </linearGradient>
  </defs>

  <!-- Background -->
  <rect width="100" height="100" rx="22" fill="#021B1C"/>

  <!-- Crescent Moon -->
  <circle cx="42" cy="50" r="28" fill="url(#gold)"/>
  <circle cx="52" cy="45" r="22" fill="#021B1C"/>

  <!-- Stars -->
  <polygon points="72,30 74,36 80,36 75,40 77,46 72,42 67,46 69,40 64,36 70,36" fill="url(#gold)"/>
  <polygon points="78,52 79,56 83,56 80,58 81,62 78,60 75,62 76,58 73,56 77,56" fill="url(#gold)"/>
  <polygon points="68,62 69,65 72,65 70,67 71,70 68,68 65,70 66,67 64,65 67,65" fill="url(#gold)"/>
</svg>
